<svg xmlns="http://www.w3.org/2000/svg" xmlns:xlink="http://www.w3.org/1999/xlink" width="800" zoomAndPan="magnify" viewBox="0 0 600 374.999991" height="500" preserveAspectRatio="xMidYMid meet" version="1.0"><defs><g/><clipPath id="7441bf0949"><path d="M 18.785156 86.28125 L 252.785156 86.28125 L 252.785156 290.28125 L 18.785156 290.28125 Z M 18.785156 86.28125 " clip-rule="nonzero"/></clipPath><clipPath id="d1db5497cc"><path d="M 229.753906 165.265625 C 228.496094 165.265625 227.246094 165.367188 226.003906 165.574219 C 224.761719 165.777344 223.546875 166.082031 222.355469 166.488281 C 221.160156 166.890625 220.011719 167.390625 218.902344 167.984375 C 217.792969 168.578125 216.738281 169.257812 215.738281 170.023438 C 214.742188 170.789062 213.8125 171.632812 212.953125 172.550781 C 212.089844 173.46875 211.3125 174.453125 210.613281 175.5 C 209.914062 176.546875 209.304688 177.644531 208.789062 178.789062 C 208.269531 179.9375 207.847656 181.117188 207.523438 182.332031 C 207.195312 183.550781 206.972656 184.785156 206.851562 186.035156 C 206.730469 187.289062 206.710938 188.542969 206.792969 189.796875 C 206.878906 191.054688 207.0625 192.292969 207.351562 193.519531 C 207.636719 194.746094 208.023438 195.9375 208.503906 197.101562 C 208.988281 198.261719 209.5625 199.378906 210.230469 200.445312 C 210.894531 201.511719 211.644531 202.519531 212.476562 203.464844 C 213.308594 204.410156 214.210938 205.28125 215.183594 206.078125 C 216.15625 206.875 217.191406 207.585938 218.28125 208.210938 C 217.753906 210.378906 217.144531 212.523438 216.449219 214.644531 C 215.753906 216.761719 214.976562 218.851562 214.113281 220.910156 C 213.253906 222.96875 212.316406 224.988281 211.296875 226.972656 C 210.277344 228.957031 209.179688 230.898438 208.007812 232.796875 C 206.835938 234.691406 205.589844 236.542969 204.273438 238.339844 C 202.953125 240.140625 201.566406 241.886719 200.109375 243.574219 C 198.65625 245.265625 197.136719 246.894531 195.550781 248.464844 C 193.96875 250.035156 192.324219 251.542969 190.621094 252.984375 C 188.917969 254.425781 187.160156 255.796875 185.351562 257.097656 C 183.539062 258.402344 181.679688 259.628906 179.773438 260.785156 C 177.863281 261.941406 175.914062 263.019531 173.921875 264.023438 C 171.925781 265.027344 169.898438 265.949219 167.832031 266.789062 C 165.765625 267.632812 163.671875 268.390625 161.546875 269.070312 C 159.421875 269.746094 157.273438 270.339844 155.101562 270.847656 C 152.925781 271.355469 150.738281 271.777344 148.535156 272.109375 C 146.328125 272.445312 144.113281 272.695312 141.886719 272.855469 C 139.664062 273.015625 137.433594 273.089844 135.203125 273.074219 C 132.972656 273.058594 130.746094 272.957031 128.523438 272.765625 C 126.300781 272.574219 124.089844 272.296875 121.890625 271.933594 C 119.6875 271.570312 117.503906 271.117188 115.339844 270.582031 C 113.175781 270.046875 111.035156 269.425781 108.917969 268.71875 C 106.800781 268.011719 104.714844 267.226562 102.664062 266.355469 C 100.609375 265.484375 98.589844 264.535156 96.613281 263.507812 C 94.632812 262.480469 92.695312 261.375 90.804688 260.195312 C 88.914062 259.011719 87.070312 257.757812 85.277344 256.433594 C 83.480469 255.105469 81.742188 253.710938 80.058594 252.246094 C 78.375 250.785156 76.753906 249.257812 75.191406 247.664062 C 73.628906 246.074219 72.128906 244.421875 70.695312 242.714844 C 69.261719 241.003906 67.898438 239.242188 66.605469 237.421875 C 65.3125 235.605469 64.089844 233.742188 62.945312 231.828125 C 61.796875 229.914062 60.726562 227.960938 59.734375 225.960938 C 58.742188 223.964844 57.828125 221.933594 56.996094 219.863281 C 54.875 221.050781 52.640625 221.949219 50.289062 222.5625 C 47.941406 223.175781 45.550781 223.480469 43.121094 223.476562 C 42.0625 223.476562 41.003906 223.414062 39.953125 223.296875 C 40.53125 224.871094 41.144531 226.433594 41.800781 227.976562 C 42.84375 230.445312 43.984375 232.871094 45.21875 235.25 C 46.453125 237.632812 47.777344 239.957031 49.195312 242.234375 C 50.613281 244.507812 52.117188 246.726562 53.710938 248.882812 C 55.304688 251.039062 56.980469 253.128906 58.734375 255.152344 C 60.492188 257.175781 62.328125 259.128906 64.238281 261.011719 C 66.152344 262.890625 68.132812 264.691406 70.1875 266.414062 C 72.238281 268.140625 74.359375 269.777344 76.539062 271.335938 C 78.722656 272.890625 80.964844 274.359375 83.261719 275.742188 C 85.5625 277.121094 87.910156 278.410156 90.308594 279.601562 C 92.710938 280.796875 95.152344 281.898438 97.640625 282.898438 C 100.125 283.902344 102.648438 284.804688 105.207031 285.609375 C 107.765625 286.410156 110.347656 287.113281 112.960938 287.714844 C 115.574219 288.3125 118.207031 288.808594 120.859375 289.199219 C 123.511719 289.59375 126.175781 289.878906 128.851562 290.0625 C 131.523438 290.246094 134.203125 290.320312 136.882812 290.292969 C 139.566406 290.265625 142.238281 290.128906 144.910156 289.890625 C 147.582031 289.648438 150.238281 289.304688 152.878906 288.855469 C 155.523438 288.40625 158.144531 287.855469 160.746094 287.199219 C 163.34375 286.542969 165.914062 285.785156 168.453125 284.929688 C 170.992188 284.070312 173.496094 283.113281 175.960938 282.058594 C 178.425781 281.003906 180.84375 279.851562 183.21875 278.605469 C 185.589844 277.359375 187.910156 276.019531 190.179688 274.589844 C 192.449219 273.164062 194.65625 271.644531 196.804688 270.042969 C 198.953125 268.441406 201.035156 266.753906 203.050781 264.988281 C 205.066406 263.21875 207.011719 261.375 208.882812 259.453125 C 210.753906 257.535156 212.542969 255.542969 214.257812 253.480469 C 215.972656 251.417969 217.601562 249.292969 219.148438 247.101562 C 220.691406 244.914062 222.148438 242.664062 223.519531 240.359375 C 224.886719 238.054688 226.164062 235.699219 227.347656 233.292969 C 228.527344 230.886719 229.617188 228.441406 230.605469 225.949219 C 231.59375 223.457031 232.484375 220.929688 233.277344 218.367188 C 234.066406 215.808594 234.757812 213.21875 235.34375 210.601562 C 236.015625 210.433594 236.679688 210.234375 237.335938 210.007812 C 237.992188 209.777344 238.636719 209.519531 239.269531 209.230469 C 239.902344 208.945312 240.519531 208.628906 241.125 208.285156 C 241.730469 207.941406 242.316406 207.574219 242.886719 207.175781 C 243.457031 206.78125 244.007812 206.359375 244.539062 205.910156 C 245.074219 205.464844 245.582031 204.996094 246.074219 204.503906 C 246.5625 204.011719 247.03125 203.496094 247.472656 202.960938 C 247.917969 202.425781 248.335938 201.871094 248.726562 201.300781 C 249.121094 200.726562 249.488281 200.136719 249.828125 199.53125 C 250.167969 198.925781 250.476562 198.304688 250.761719 197.671875 C 251.046875 197.039062 251.300781 196.390625 251.523438 195.734375 C 251.75 195.078125 251.945312 194.410156 252.109375 193.738281 C 252.273438 193.0625 252.40625 192.382812 252.511719 191.695312 C 252.613281 191.007812 252.6875 190.316406 252.726562 189.625 C 252.765625 188.929688 252.777344 188.234375 252.753906 187.542969 C 252.730469 186.847656 252.679688 186.15625 252.59375 185.464844 C 252.507812 184.777344 252.390625 184.09375 252.246094 183.414062 C 252.097656 182.734375 251.921875 182.0625 251.714844 181.402344 C 251.503906 180.738281 251.269531 180.085938 251 179.445312 C 250.734375 178.800781 250.441406 178.175781 250.117188 177.558594 C 249.792969 176.945312 249.441406 176.347656 249.0625 175.761719 C 248.6875 175.179688 248.28125 174.617188 247.855469 174.070312 C 247.425781 173.523438 246.972656 172.996094 246.496094 172.492188 C 246.019531 171.984375 245.519531 171.503906 245 171.042969 C 244.480469 170.582031 243.941406 170.148438 243.378906 169.734375 C 242.820312 169.324219 242.242188 168.9375 241.648438 168.578125 C 241.054688 168.222656 240.445312 167.890625 239.820312 167.585938 C 239.195312 167.28125 238.558594 167.007812 237.90625 166.761719 C 237.257812 166.515625 236.597656 166.296875 235.929688 166.113281 C 235.261719 165.925781 234.582031 165.769531 233.898438 165.644531 C 233.21875 165.519531 232.53125 165.425781 231.835938 165.363281 C 231.144531 165.296875 230.453125 165.265625 229.757812 165.265625 Z M 229.753906 198.808594 C 229.0625 198.808594 228.378906 198.742188 227.699219 198.605469 C 227.019531 198.472656 226.363281 198.273438 225.722656 198.007812 C 225.085938 197.742188 224.476562 197.417969 223.902344 197.035156 C 223.328125 196.648438 222.796875 196.214844 222.304688 195.722656 C 221.816406 195.234375 221.378906 194.703125 220.996094 194.128906 C 220.613281 193.554688 220.289062 192.945312 220.023438 192.308594 C 219.757812 191.667969 219.558594 191.007812 219.421875 190.332031 C 219.289062 189.652344 219.222656 188.96875 219.222656 188.277344 C 219.222656 187.585938 219.289062 186.898438 219.421875 186.222656 C 219.558594 185.542969 219.757812 184.882812 220.023438 184.246094 C 220.289062 183.605469 220.613281 183 220.996094 182.425781 C 221.378906 181.851562 221.816406 181.316406 222.304688 180.828125 C 222.796875 180.339844 223.328125 179.902344 223.902344 179.519531 C 224.476562 179.132812 225.085938 178.808594 225.722656 178.546875 C 226.363281 178.28125 227.019531 178.082031 227.699219 177.945312 C 228.378906 177.8125 229.0625 177.742188 229.753906 177.742188 C 230.445312 177.742188 231.132812 177.8125 231.808594 177.945312 C 232.488281 178.082031 233.148438 178.28125 233.785156 178.546875 C 234.425781 178.8125 235.03125 179.136719 235.609375 179.519531 C 236.183594 179.90625 236.714844 180.339844 237.203125 180.832031 C 237.691406 181.320312 238.128906 181.851562 238.515625 182.425781 C 238.898438 183.003906 239.222656 183.609375 239.488281 184.25 C 239.75 184.886719 239.953125 185.546875 240.085938 186.222656 C 240.222656 186.902344 240.289062 187.585938 240.289062 188.28125 C 240.289062 188.972656 240.21875 189.65625 240.082031 190.332031 C 239.949219 191.011719 239.746094 191.667969 239.480469 192.308594 C 239.21875 192.945312 238.890625 193.550781 238.507812 194.125 C 238.125 194.703125 237.6875 195.234375 237.199219 195.722656 C 236.710938 196.210938 236.175781 196.648438 235.601562 197.03125 C 235.027344 197.414062 234.421875 197.738281 233.78125 198.003906 C 233.144531 198.269531 232.484375 198.46875 231.808594 198.605469 C 231.128906 198.742188 230.445312 198.808594 229.753906 198.808594 Z M 64.832031 188.28125 C 64.828125 186.257812 64.566406 184.269531 64.039062 182.316406 C 63.515625 180.363281 62.746094 178.511719 61.730469 176.761719 C 60.71875 175.011719 59.496094 173.425781 58.0625 171.996094 C 56.632812 170.570312 55.039062 169.351562 53.285156 168.34375 C 53.8125 166.175781 54.421875 164.035156 55.117188 161.917969 C 55.8125 159.800781 56.589844 157.710938 57.449219 155.65625 C 58.308594 153.597656 59.246094 151.578125 60.265625 149.597656 C 61.285156 147.613281 62.378906 145.671875 63.550781 143.777344 C 64.722656 141.878906 65.964844 140.03125 67.28125 138.234375 C 68.597656 136.433594 69.984375 134.691406 71.4375 133 C 72.894531 131.3125 74.410156 129.683594 75.992188 128.113281 C 77.574219 126.542969 79.21875 125.039062 80.917969 123.597656 C 82.621094 122.15625 84.375 120.785156 86.183594 119.480469 C 87.992188 118.179688 89.851562 116.949219 91.757812 115.792969 C 93.664062 114.636719 95.609375 113.558594 97.601562 112.554688 C 99.59375 111.554688 101.621094 110.628906 103.683594 109.789062 C 105.746094 108.945312 107.839844 108.183594 109.964844 107.507812 C 112.085938 106.828125 114.234375 106.234375 116.40625 105.726562 C 118.574219 105.214844 120.761719 104.792969 122.964844 104.457031 C 125.167969 104.121094 127.382812 103.871094 129.605469 103.707031 C 131.828125 103.542969 134.054688 103.46875 136.285156 103.484375 C 138.511719 103.496094 140.738281 103.59375 142.960938 103.785156 C 145.179688 103.972656 147.390625 104.246094 149.589844 104.609375 C 151.789062 104.972656 153.972656 105.417969 156.136719 105.953125 C 158.300781 106.488281 160.441406 107.105469 162.554688 107.808594 C 164.671875 108.511719 166.757812 109.292969 168.8125 110.160156 C 170.863281 111.027344 172.882812 111.972656 174.859375 113 C 176.839844 114.023438 178.777344 115.125 180.667969 116.304688 C 182.558594 117.480469 184.402344 118.734375 186.199219 120.054688 C 187.992188 121.378906 189.730469 122.769531 191.414062 124.230469 C 193.101562 125.691406 194.722656 127.214844 196.289062 128.800781 C 197.851562 130.390625 199.351562 132.039062 200.785156 133.742188 C 202.222656 135.449219 203.585938 137.210938 204.882812 139.023438 C 206.179688 140.835938 207.402344 142.699219 208.550781 144.609375 C 209.699219 146.519531 210.773438 148.46875 211.769531 150.464844 C 212.765625 152.460938 213.679688 154.488281 214.515625 156.554688 C 216.675781 155.304688 218.960938 154.359375 221.371094 153.714844 C 223.78125 153.070312 226.234375 152.75 228.730469 152.753906 C 229.65625 152.753906 230.566406 152.796875 231.46875 152.882812 C 230.933594 151.429688 230.367188 149.992188 229.765625 148.570312 C 228.722656 146.101562 227.585938 143.675781 226.351562 141.296875 C 225.117188 138.914062 223.792969 136.585938 222.375 134.3125 C 220.957031 132.035156 219.453125 129.820312 217.859375 127.660156 C 216.269531 125.503906 214.59375 123.414062 212.835938 121.386719 C 211.078125 119.363281 209.246094 117.410156 207.335938 115.53125 C 205.421875 113.648438 203.441406 111.847656 201.386719 110.121094 C 199.335938 108.398438 197.214844 106.757812 195.035156 105.199219 C 192.851562 103.644531 190.609375 102.175781 188.3125 100.792969 C 186.011719 99.414062 183.664062 98.125 181.265625 96.929688 C 178.863281 95.734375 176.421875 94.636719 173.933594 93.632812 C 171.445312 92.628906 168.925781 91.726562 166.367188 90.921875 C 163.808594 90.117188 161.222656 89.417969 158.609375 88.816406 C 155.996094 88.21875 153.363281 87.722656 150.710938 87.328125 C 148.058594 86.9375 145.394531 86.648438 142.71875 86.46875 C 140.042969 86.285156 137.367188 86.207031 134.683594 86.238281 C 132.003906 86.265625 129.328125 86.398438 126.65625 86.640625 C 123.988281 86.878906 121.328125 87.222656 118.6875 87.675781 C 116.042969 88.125 113.421875 88.675781 110.820312 89.332031 C 108.222656 89.988281 105.652344 90.746094 103.113281 91.605469 C 100.570312 92.464844 98.070312 93.421875 95.605469 94.476562 C 93.140625 95.53125 90.722656 96.683594 88.347656 97.929688 C 85.972656 99.179688 83.652344 100.515625 81.382812 101.945312 C 79.117188 103.375 76.90625 104.894531 74.757812 106.496094 C 72.609375 108.101562 70.527344 109.785156 68.511719 111.554688 C 66.496094 113.324219 64.554688 115.167969 62.683594 117.089844 C 60.8125 119.011719 59.023438 121.003906 57.308594 123.066406 C 55.597656 125.128906 53.964844 127.253906 52.421875 129.445312 C 50.875 131.636719 49.417969 133.882812 48.050781 136.191406 C 46.683594 138.496094 45.40625 140.851562 44.226562 143.257812 C 43.042969 145.664062 41.957031 148.113281 40.96875 150.605469 C 39.980469 153.097656 39.089844 155.625 38.300781 158.1875 C 37.511719 160.75 36.824219 163.339844 36.238281 165.957031 C 35.542969 166.128906 34.859375 166.335938 34.1875 166.570312 C 33.511719 166.808594 32.851562 167.078125 32.203125 167.375 C 31.554688 167.671875 30.917969 168 30.300781 168.359375 C 29.683594 168.714844 29.082031 169.101562 28.5 169.515625 C 27.917969 169.929688 27.355469 170.367188 26.8125 170.835938 C 26.273438 171.300781 25.753906 171.789062 25.257812 172.304688 C 24.761719 172.820312 24.289062 173.355469 23.84375 173.914062 C 23.398438 174.472656 22.980469 175.046875 22.585938 175.644531 C 22.195312 176.242188 21.832031 176.855469 21.496094 177.488281 C 21.160156 178.117188 20.855469 178.761719 20.582031 179.421875 C 20.304688 180.082031 20.0625 180.753906 19.847656 181.433594 C 19.636719 182.117188 19.457031 182.808594 19.308594 183.507812 C 19.160156 184.203125 19.046875 184.910156 18.960938 185.617188 C 18.878906 186.328125 18.832031 187.039062 18.8125 187.753906 C 18.796875 188.46875 18.816406 189.179688 18.863281 189.894531 C 18.914062 190.605469 19 191.316406 19.113281 192.019531 C 19.230469 192.726562 19.378906 193.421875 19.558594 194.113281 C 19.742188 194.804688 19.953125 195.484375 20.199219 196.15625 C 20.445312 196.828125 20.71875 197.488281 21.023438 198.132812 C 21.332031 198.777344 21.667969 199.40625 22.03125 200.023438 C 22.394531 200.636719 22.789062 201.230469 23.207031 201.808594 C 23.628906 202.386719 24.074219 202.945312 24.546875 203.480469 C 25.019531 204.015625 25.515625 204.53125 26.035156 205.019531 C 26.554688 205.511719 27.09375 205.976562 27.65625 206.414062 C 28.222656 206.855469 28.804688 207.265625 29.40625 207.652344 C 30.007812 208.039062 30.625 208.394531 31.257812 208.722656 C 31.894531 209.050781 32.542969 209.347656 33.203125 209.613281 C 33.867188 209.882812 34.539062 210.117188 35.226562 210.324219 C 35.910156 210.527344 36.601562 210.699219 37.300781 210.839844 C 38.003906 210.980469 38.707031 211.089844 39.417969 211.164062 C 40.128906 211.238281 40.84375 211.277344 41.554688 211.285156 C 42.269531 211.292969 42.984375 211.269531 43.695312 211.210938 C 44.40625 211.152344 45.117188 211.0625 45.820312 210.9375 C 46.523438 210.8125 47.21875 210.65625 47.90625 210.46875 C 48.597656 210.277344 49.277344 210.058594 49.945312 209.804688 C 50.613281 209.554688 51.269531 209.269531 51.910156 208.957031 C 52.550781 208.644531 53.179688 208.300781 53.789062 207.929688 C 54.398438 207.558594 54.988281 207.160156 55.5625 206.734375 C 56.136719 206.304688 56.6875 205.855469 57.21875 205.375 C 57.75 204.898438 58.257812 204.394531 58.742188 203.871094 C 59.226562 203.347656 59.683594 202.800781 60.117188 202.230469 C 60.550781 201.664062 60.957031 201.078125 61.335938 200.46875 C 61.714844 199.863281 62.0625 199.242188 62.382812 198.605469 C 62.703125 197.964844 62.992188 197.3125 63.253906 196.648438 C 63.515625 195.984375 63.742188 195.308594 63.9375 194.621094 C 64.136719 193.933594 64.300781 193.238281 64.433594 192.539062 C 64.566406 191.835938 64.664062 191.128906 64.730469 190.417969 C 64.796875 189.707031 64.832031 188.992188 64.832031 188.28125 Z M 31.285156 188.28125 C 31.285156 187.585938 31.351562 186.902344 31.488281 186.222656 C 31.621094 185.546875 31.824219 184.886719 32.085938 184.246094 C 32.351562 183.609375 32.675781 183 33.058594 182.425781 C 33.445312 181.851562 33.882812 181.320312 34.371094 180.828125 C 34.859375 180.339844 35.390625 179.902344 35.964844 179.519531 C 36.542969 179.136719 37.148438 178.808594 37.789062 178.546875 C 38.425781 178.28125 39.085938 178.082031 39.765625 177.945312 C 40.441406 177.8125 41.128906 177.742188 41.820312 177.742188 C 42.511719 177.742188 43.195312 177.8125 43.875 177.945312 C 44.550781 178.082031 45.210938 178.28125 45.851562 178.546875 C 46.488281 178.808594 47.097656 179.132812 47.671875 179.519531 C 48.246094 179.902344 48.777344 180.339844 49.265625 180.828125 C 49.757812 181.316406 50.191406 181.847656 50.578125 182.425781 C 50.960938 183 51.285156 183.605469 51.550781 184.246094 C 51.816406 184.882812 52.015625 185.542969 52.148438 186.222656 C 52.285156 186.898438 52.351562 187.585938 52.351562 188.277344 C 52.351562 188.96875 52.285156 189.652344 52.152344 190.332031 C 52.015625 191.007812 51.816406 191.667969 51.550781 192.308594 C 51.285156 192.945312 50.960938 193.554688 50.578125 194.128906 C 50.195312 194.703125 49.757812 195.234375 49.269531 195.722656 C 48.777344 196.214844 48.246094 196.648438 47.671875 197.035156 C 47.097656 197.417969 46.488281 197.742188 45.851562 198.007812 C 45.210938 198.273438 44.550781 198.472656 43.875 198.605469 C 43.195312 198.742188 42.511719 198.808594 41.820312 198.808594 C 41.128906 198.808594 40.441406 198.742188 39.765625 198.605469 C 39.085938 198.46875 38.429688 198.269531 37.789062 198.003906 C 37.152344 197.742188 36.546875 197.417969 35.96875 197.03125 C 35.394531 196.648438 34.863281 196.210938 34.375 195.722656 C 33.886719 195.234375 33.449219 194.703125 33.066406 194.128906 C 32.679688 193.554688 32.355469 192.945312 32.089844 192.308594 C 31.824219 191.667969 31.625 191.011719 31.488281 190.332031 C 31.355469 189.65625 31.285156 188.972656 31.285156 188.28125 Z M 136.027344 145.3125 C 137.921875 145.3125 139.808594 145.4375 141.6875 145.6875 C 143.566406 145.9375 145.417969 146.3125 147.246094 146.808594 C 149.074219 147.300781 150.863281 147.914062 152.609375 148.648438 C 154.359375 149.378906 156.050781 150.222656 157.683594 151.175781 C 159.320312 152.132812 160.886719 153.191406 162.382812 154.351562 C 163.878906 155.515625 165.292969 156.769531 166.621094 158.117188 C 167.953125 159.46875 169.1875 160.898438 170.328125 162.410156 C 171.46875 163.921875 172.507812 165.503906 173.4375 167.152344 L 189.265625 161.15625 C 179.367188 141.8125 159.210938 128.53125 136.027344 128.53125 C 103.082031 128.53125 76.277344 155.332031 76.277344 188.28125 C 76.277344 221.226562 103.082031 248.027344 136.027344 248.027344 C 159.742188 248.027344 180.261719 234.148438 189.910156 214.09375 L 174.382812 207.644531 C 173.492188 209.410156 172.480469 211.105469 171.355469 212.730469 C 170.230469 214.355469 168.996094 215.898438 167.65625 217.351562 C 166.316406 218.808594 164.886719 220.164062 163.359375 221.421875 C 161.832031 222.683594 160.226562 223.828125 158.542969 224.867188 C 156.859375 225.902344 155.109375 226.820312 153.296875 227.613281 C 151.488281 228.410156 149.628906 229.078125 147.726562 229.617188 C 145.824219 230.15625 143.894531 230.5625 141.933594 230.835938 C 139.976562 231.109375 138.007812 231.246094 136.027344 231.246094 C 112.335938 231.246094 93.0625 211.972656 93.0625 188.28125 C 93.0625 164.585938 112.335938 145.3125 136.027344 145.3125 Z M 136.027344 145.3125 " clip-rule="nonzero"/></clipPath></defs><g clip-path="url(#7441bf0949)"><g clip-path="url(#d1db5497cc)"><path fill="#06c3ff" d="M 18.796875 86.28125 L 18.796875 290.28125 L 252.777344 290.28125 L 252.777344 86.28125 Z M 18.796875 86.28125 " fill-opacity="1" fill-rule="nonzero"/></g></g><g fill="#06c3ff" fill-opacity="1"><g transform="translate(261.149038, 220.383281)"><g><path d="M 21.585938 0 C 22.734375 0 23.328125 -0.59375 23.328125 -1.742188 L 23.328125 -32.886719 L 59.445312 0 C 62.164062 2.507812 64.121094 1.402344 64.121094 -1.570312 L 64.121094 -63.523438 C 64.121094 -64.671875 63.523438 -65.265625 62.378906 -65.265625 L 49.078125 -65.265625 C 47.929688 -65.265625 47.335938 -64.671875 47.335938 -63.523438 L 47.335938 -33.484375 L 10.792969 -65.691406 C 8.371094 -67.816406 6.542969 -66.753906 6.542969 -63.78125 L 6.542969 -1.742188 C 6.542969 -0.59375 7.136719 0 8.285156 0 Z M 21.585938 0 "/></g></g></g><g fill="#06c3ff" fill-opacity="1"><g transform="translate(340.506199, 220.383281)"><g><path d="M 32.378906 0 C 33.484375 0 34.121094 -0.59375 34.121094 -1.742188 L 34.121094 -50.480469 L 47.25 -50.480469 C 48.398438 -50.480469 48.992188 -51.074219 48.992188 -52.222656 L 48.992188 -63.523438 C 48.992188 -64.671875 48.398438 -65.265625 47.25 -65.265625 L 3.484375 -65.265625 C 2.335938 -65.265625 1.742188 -64.671875 1.742188 -63.523438 L 1.742188 -52.222656 C 1.742188 -51.074219 2.335938 -50.480469 3.484375 -50.480469 L 16.613281 -50.480469 L 16.613281 -1.742188 C 16.613281 -0.59375 17.25 0 18.355469 0 Z M 32.378906 0 "/></g></g></g><g fill="#06c3ff" fill-opacity="1"><g transform="translate(400.022304, 220.383281)"><g><path d="M 35.949219 -65.265625 C 34.628906 -67.945312 32.546875 -67.945312 31.230469 -65.265625 L 1.316406 -2.082031 C 0.765625 -0.851562 1.316406 0 2.59375 0 L 17.929688 0 C 18.867188 0 19.589844 -0.511719 19.929688 -1.402344 L 22.054688 -6.882812 L 45.125 -6.882812 L 47.25 -1.402344 C 47.589844 -0.511719 48.3125 0 49.246094 0 L 64.585938 0 C 65.863281 0 66.414062 -0.851562 65.863281 -2.082031 Z M 33.609375 -36.332031 L 40.027344 -19.929688 L 27.152344 -19.929688 Z M 33.609375 -36.332031 "/></g></g></g><g fill="#06c3ff" fill-opacity="1"><g transform="translate(475.980582, 220.383281)"><g><path d="M 20.609375 0 C 21.585938 0 22.179688 -0.339844 22.605469 -1.316406 L 31.785156 -20.351562 L 40.835938 -1.316406 C 41.257812 -0.339844 41.855469 0 42.832031 0 L 59.871094 0 C 61.273438 0 61.699219 -0.851562 61.019531 -2.082031 L 42.195312 -32.71875 L 60.933594 -63.183594 C 61.613281 -64.417969 61.1875 -65.265625 59.785156 -65.265625 L 42.832031 -65.265625 C 41.855469 -65.265625 41.257812 -64.925781 40.835938 -63.949219 L 31.785156 -44.828125 L 22.605469 -63.949219 C 22.179688 -64.925781 21.585938 -65.265625 20.609375 -65.265625 L 3.738281 -65.265625 C 2.335938 -65.265625 1.914062 -64.417969 2.59375 -63.183594 L 21.332031 -32.71875 L 2.421875 -2.082031 C 1.742188 -0.851562 2.167969 0 3.570312 0 Z M 20.609375 0 "/></g></g></g></svg>